<?xml version="1.0"?>
<svg xmlns="http://www.w3.org/2000/svg" xmlns:xlink="http://www.w3.org/1999/xlink" xmlns:svgjs="http://svgjs.com/svgjs" version="1.1" width="512" height="512" x="0" y="0" viewBox="0 0 445.6 445.6" style="enable-background:new 0 0 512 512" xml:space="preserve" class=""><g>
<g xmlns="http://www.w3.org/2000/svg">
	<g>
		<path d="M355.2,114.4c-8-8-18.8-12.8-30.8-12.8H296V27.2c0-7.2-2.4-14-6.8-18.8c-4.4-5.2-10.8-8.4-18-8.4h-96.8    c-7.2,0-13.6,3.2-18,8.4c-4.4,4.8-6.8,11.6-6.8,18.8v74h-28.4c-12,0-23.2,4.8-30.8,12.8c-8,8-12.8,18.8-12.8,30.8V362    c0,12,4.8,23.2,12.8,30.8c6,6,14,10.4,23.2,12v9.2c0,8.8,3.6,16.8,9.2,22.4c5.6,5.6,13.6,9.2,22.4,9.2h1.2    c8.8,0,16.8-3.6,22.4-9.2c5.6-5.6,9.2-13.6,9.2-22.4v-8.4h89.6v8.4c0,8.8,3.6,16.8,9.2,22.4c5.6,5.6,13.6,9.2,22.4,9.2h1.2    c8.4,0,16.4-3.2,22-8.8l0.4-0.4c5.6-5.6,9.2-13.6,9.2-22.4v-9.2c8.8-1.6,16.8-6,23.2-12c8-8,12.8-18.8,12.8-30.8V145.2    C368,133.2,363.2,122,355.2,114.4z M165.2,27.2c0-3.2,1.2-6.4,3.2-8.4c1.6-2,3.6-2.8,6-2.8h96.8c2.4,0,4.4,1.2,6,2.8    c2,2,3.2,5.2,3.2,8.4v74H262V52.8c0-5.2-1.2-10-3.6-13.6c-2.8-4.8-7.2-7.6-12.4-7.6h-46.4c-5.2,0-9.6,2.8-12.4,7.6    c-2.4,3.6-3.6,8.4-3.6,13.6v48.8h-18.4V27.2z M199.6,52.8c0-2.4,0.4-4,1.2-5.6h44c0.8,1.2,1.2,3.2,1.2,5.2v48.8h-46.4V52.8z     M162,414.8c0,4.4-1.6,8.4-4.8,11.2c-2.8,2.8-6.8,4.8-11.2,4.8h-1.2c-4.4,0-8.4-1.6-11.2-4.8c-2.8-2.8-4.8-6.8-4.8-11.2v-8.4H162    V414.8z M316.8,414.8L316.8,414.8c0,4.4-1.6,8.4-4.8,11.2l-0.4,0.4c-2.8,2.8-6.8,4.4-10.8,4.4h-1.2c-4.4,0-8.4-1.6-11.2-4.8    c-2.8-2.8-4.8-6.8-4.8-11.2v-8.4h33.2V414.8z M352.8,362.4c0,7.6-3.2,14.8-8.4,19.6c-5.2,5.2-12,8.4-19.6,8.4h-49.2H170h-49.2    c-7.6,0-14.8-3.2-19.6-8.4c-5.2-5.2-8.4-12-8.4-19.6V145.2c0-7.6,3.2-14.8,8.4-19.6c5.2-5.2,12-8.4,19.6-8.4h36.4h34h62.4h34H324    c8.4,0,15.2,3.2,20.4,8.4c5.2,5.2,8.4,12,8.4,19.6V362.4z" fill="#002f9d" data-original="#000000" style=""/>
	</g>
</g>
<g xmlns="http://www.w3.org/2000/svg">
</g>
<g xmlns="http://www.w3.org/2000/svg">
</g>
<g xmlns="http://www.w3.org/2000/svg">
</g>
<g xmlns="http://www.w3.org/2000/svg">
</g>
<g xmlns="http://www.w3.org/2000/svg">
</g>
<g xmlns="http://www.w3.org/2000/svg">
</g>
<g xmlns="http://www.w3.org/2000/svg">
</g>
<g xmlns="http://www.w3.org/2000/svg">
</g>
<g xmlns="http://www.w3.org/2000/svg">
</g>
<g xmlns="http://www.w3.org/2000/svg">
</g>
<g xmlns="http://www.w3.org/2000/svg">
</g>
<g xmlns="http://www.w3.org/2000/svg">
</g>
<g xmlns="http://www.w3.org/2000/svg">
</g>
<g xmlns="http://www.w3.org/2000/svg">
</g>
<g xmlns="http://www.w3.org/2000/svg">
</g>
</g></svg>
