<?xml version="1.0"?>
<svg xmlns="http://www.w3.org/2000/svg" xmlns:xlink="http://www.w3.org/1999/xlink" xmlns:svgjs="http://svgjs.com/svgjs" version="1.1" width="512" height="512" x="0" y="0" viewBox="0 0 509.833 509.833" style="enable-background:new 0 0 512 512" xml:space="preserve" class=""><g><g xmlns="http://www.w3.org/2000/svg"><g><g><path d="m259.542 509.833c-20.335 0-39.201-8.163-53.123-22.986-13.921-14.822-20.887-34.163-19.613-54.458l.917-14.611c.259-4.134 3.814-7.271 7.955-7.016 4.134.259 7.275 3.821 7.016 7.955l-.917 14.611c-1.012 16.118 4.52 31.478 15.576 43.249 11.056 11.772 26.039 18.255 42.188 18.255 27.109 0 50.3-18.449 56.396-44.864l3.761-16.295c.963-4.175 1.836-8.601 2.594-13.153.681-4.086 4.533-6.85 8.631-6.166 4.086.68 6.846 4.544 6.166 8.63-.809 4.856-1.742 9.587-2.775 14.062l-3.761 16.296c-7.675 33.262-36.876 56.491-71.011 56.491z" fill="#002f9d" data-original="#000000" style="" class=""/><path d="m197.223 393.787c-.158 0-.317-.005-.477-.015-4.134-.26-7.275-3.821-7.016-7.955l.95-15.128c1.074-17.11.421-34.451-1.939-51.54-.566-4.103 2.3-7.889 6.404-8.456 4.104-.565 7.889 2.301 8.456 6.404 2.497 18.078 3.187 36.425 2.05 54.531l-.95 15.128c-.25 3.974-3.551 7.031-7.478 7.031z" fill="#002f9d" data-original="#000000" style="" class=""/><path d="m472.26 416.612c-2.709 0-5.324-1.472-6.66-4.042l-27.57-53.021c-1.714-3.295-2.62-7.002-2.62-10.719v-27.114c0-4.142 3.357-7.5 7.5-7.5s7.5 3.358 7.5 7.5v27.114c0 1.317.321 2.63.928 3.798l27.571 53.022c1.911 3.675.48 8.203-3.194 10.114-1.106.576-2.289.848-3.455.848z" fill="#002f9d" data-original="#000000" style="" class=""/><path d="m117.709 360.194c-1.55 0-3.113-.479-4.455-1.471-3.33-2.463-4.033-7.16-1.569-10.49l30.474-41.197c.746-1.008 1.732-1.812 2.869-2.341l10.489-4.875c12.737-5.92 23.648-15.206 31.552-26.853 2.327-3.428 6.991-4.32 10.417-1.995 3.428 2.326 4.32 6.99 1.994 10.417-9.428 13.893-22.444 24.969-37.642 32.033l-8.756 4.07-29.338 39.661c-1.471 1.989-3.738 3.041-6.035 3.041z" fill="#002f9d" data-original="#000000" style="" class=""/><path d="m437.971 234.759-79.407-67.822c.112-13.227-2.92-26.198-8.917-38.062.292-.119.586-.233.876-.36 11.738-5.174 20.062-15.808 22.266-28.446 1.398-8.021-.939-16.079-6.415-22.105-5.476-6.025-13.269-9.119-21.391-8.499-.838.065-1.668.182-2.493.327-.051-.51-.091-1.02-.161-1.531-1.225-8.972-6.422-16.721-14.258-21.259-7.099-4.112-15.406-5.022-23.148-2.626-2.817-8.356-9.131-14.892-17.422-17.978-6.643-2.473-13.77-2.434-20.246-.024-1.149-2.412-2.48-4.757-4.032-6.994-5.87-8.46-15.134-13.632-25.416-14.189-8.279-.449-16.226 2.155-22.532 7.247-.015-.017-.029-.034-.044-.051-7.162-7.872-17.374-12.387-28.017-12.387-13.071 0-25.043 6.598-32.023 17.649-6.981 11.051-7.796 24.696-2.182 36.499l1.411 2.965c1.784 3.752 3.175 7.674 4.152 11.704l-81.438 69.006c-11.254 9.537-17.709 23.467-17.709 38.218v80.254c0 1.317-.321 2.63-.929 3.799l-27.571 53.021c-1.911 3.675-.481 8.203 3.194 10.114 1.105.575 2.288.847 3.454.847 2.709 0 5.324-1.472 6.661-4.042l27.57-53.021c1.714-3.296 2.621-7.003 2.621-10.719v-80.254c0-10.334 4.522-20.093 12.407-26.774l73.288-62.1c-.083 1.215-.194 2.428-.351 3.639l-2.06 15.851c-.275 2.116-.522 4.236-.756 6.358l-27.146 32.432c-3.414 4.079-4.882 9.43-4.027 14.68l9.726 59.729c1.313 8.069 8.201 13.926 16.376 13.926h11.476c5.794 0 11.246-3.086 14.228-8.056l15.83-26.383c1.643-2.737 4.263-4.628 7.378-5.323 3.116-.695 6.291-.099 8.941 1.68l1.38.926c4.601 3.088 6.357 9.027 4.174 14.121l-14.644 34.175c-1.631 3.808.133 8.216 3.94 9.848.963.413 1.965.608 2.951.608 2.91 0 5.679-1.704 6.897-4.548l14.644-34.175c5.021-11.718.982-25.379-9.603-32.483l-1.379-.926c-6.097-4.091-13.401-5.465-20.568-3.865s-13.194 5.949-16.972 12.245l-15.83 26.382c-.286.478-.81.774-1.366.774h-11.476c-.785 0-1.445-.562-1.572-1.337l-9.726-59.729c-.154-.945.11-1.908.725-2.642l13.813-16.503c-.43 13-.108 26.031.98 38.982.346 4.127 3.968 7.196 8.101 6.846 4.127-.347 7.193-3.974 6.846-8.101-1.892-22.529-1.375-45.31 1.535-67.709l2.06-15.851c.965-7.431.818-14.943-.437-22.329-.015-.088-.034-.175-.049-.263-.002-.008-.003-.015-.004-.023-1.172-6.736-3.25-13.281-6.187-19.453l-1.41-2.965c-3.392-7.129-2.899-15.371 1.317-22.045s11.444-10.659 19.339-10.659c6.523 0 12.532 2.657 16.922 7.482s6.468 11.058 5.854 17.552l-.397 4.199c-.717 7.569.533 15.244 3.615 22.194 6.113 13.788 18.651 23.454 33.541 25.856l38.994 6.292c10.315 1.664 19.875 5.542 28.183 11.298.257.208.526.398.805.568 6.351 4.538 11.949 10.184 16.548 16.811.158.228.301.464.456.694.01.015.02.03.03.045 10.369 15.345 14.091 33.754 10.452 51.952l-15.275 76.391c-.812 4.062 1.822 8.013 5.884 8.825.497.099.991.147 1.479.147 3.502 0 6.634-2.466 7.347-6.031l7.066-35.334 19.992 23.885c.499.597.714 1.379.589 2.146l-9.65 59.268c-.196 1.204-1.224 2.078-2.443 2.078h-10.226c-.864 0-1.678-.46-2.122-1.202l-15.095-25.157c-3.903-6.506-10.132-11-17.536-12.653s-14.954-.235-21.255 3.994c-10.938 7.341-15.11 21.458-9.922 33.564l20.656 48.208c9.1 21.235 25.648 38.292 46.598 48.029l8.45 3.927 29.339 39.661c1.471 1.988 3.738 3.04 6.035 3.04 1.55 0 3.113-.479 4.454-1.471 3.33-2.463 4.033-7.16 1.569-10.49l-30.475-41.197c-.745-1.008-1.731-1.812-2.868-2.341l-10.183-4.732c-17.593-8.177-31.49-22.501-39.133-40.335l-20.656-48.208c-2.35-5.483-.459-11.877 4.494-15.202 2.854-1.915 6.275-2.559 9.627-1.809 3.354.749 6.174 2.784 7.941 5.731l15.095 25.157c3.14 5.234 8.882 8.485 14.985 8.485h10.226c8.61 0 15.864-6.168 17.248-14.667l9.65-59.27c.825-5.072-.593-10.242-3.892-14.183l-27.722-33.12 4.032-20.162 71.71 61.248c4.563 3.897 7.181 9.574 7.181 15.575v28.014c0 4.142 3.357 7.5 7.5 7.5s7.5-3.358 7.5-7.5v-28.012c-.001-10.395-4.536-20.23-12.44-26.981zm-91.835-150.339c3.46-.271 6.798 1.056 9.136 3.63 2.339 2.574 3.338 6.016 2.74 9.442-1.34 7.684-6.401 14.15-13.538 17.296-.975.43-1.981.754-3.008.993-3.265-4.307-6.895-8.235-10.831-11.773 4.915-5.09 8.444-11.231 10.375-17.875 1.538-.974 3.303-1.572 5.126-1.713zm-25.581-24.438c3.799 2.2 6.318 5.958 6.913 10.308.448 3.278.3 6.549-.37 9.686-.037.148-.064.298-.092.448-1.274 5.523-4.212 10.599-8.543 14.513-6.651-4.059-13.876-7.185-21.534-9.264.209-.245.425-.483.626-.733 5.902-7.318 9.142-16.202 9.508-25.312.363-.186.732-.36 1.11-.513 4.068-1.649 8.58-1.334 12.382.867zm-38.286-19.526c4.116 1.531 7.23 4.812 8.547 9.001.702 2.235 1.114 4.517 1.248 6.797.002.023.002.045.004.068.386 6.866-1.76 13.71-6.19 19.202-1.965 2.438-4.5 4.435-7.332 5.775l-1.45.686-16.998-2.743c3.645-3.827 6.566-8.368 8.506-13.277 3.214-8.13 4.165-16.789 2.99-25.163 3.362-1.507 7.158-1.655 10.675-.346zm-55.349 19.891c-2.041-4.604-2.869-9.687-2.394-14.701l.397-4.199c.511-5.397-.161-10.791-1.884-15.828 3.65-3.76 8.676-5.737 13.957-5.451 5.624.305 10.691 3.134 13.902 7.761 2.341 3.374 4.016 7.077 5.033 10.927.054.253.122.503.203.75 1.642 6.832 1.187 14.1-1.48 20.844-1.44 3.643-3.724 6.972-6.606 9.626l-5.846 5.385c-6.744-2.886-12.226-8.221-15.282-15.114z" fill="#002f9d" data-original="#000000" style="" class=""/><path d="m253.005 329.703c-2.694 0-5.297-1.455-6.641-4.003-4.854-9.206-7.419-19.605-7.419-30.074 0-18.29 7.806-35.797 21.417-48.032 3.082-2.771 7.822-2.516 10.592.564 2.769 3.08 2.517 7.822-.564 10.591-10.451 9.395-16.444 22.835-16.444 36.876 0 8.041 1.967 16.021 5.688 23.078 1.932 3.665.528 8.201-3.136 10.132-1.117.589-2.313.868-3.493.868z" fill="#002f9d" data-original="#000000" style="" class=""/><path d="m291.712 247.278c-3.473 0-6.59-2.426-7.332-5.96-.852-4.054 1.744-8.03 5.798-8.881 8.183-1.719 16.826-1.828 25.051-.319 4.074.748 6.771 4.656 6.023 8.73s-4.654 6.771-8.73 6.024c-6.314-1.159-12.976-1.076-19.26.245-.519.109-1.039.161-1.55.161z" fill="#002f9d" data-original="#000000" style="" class=""/><path d="m256.599 226.492c-.792 0-1.599-.126-2.391-.393-3.926-1.32-6.039-5.573-4.719-9.499 1.575-4.683 2.373-9.59 2.373-14.585 0-25.211-20.511-45.722-45.722-45.722-3.108 0-6.211.312-9.223.929-4.057.834-8.021-1.786-8.851-5.844-.831-4.058 1.786-8.021 5.844-8.851 3.999-.818 8.114-1.233 12.23-1.233 33.482 0 60.722 27.24 60.722 60.722 0 6.623-1.062 13.139-3.155 19.365-1.054 3.133-3.976 5.111-7.108 5.111z" fill="#002f9d" data-original="#000000" style="" class=""/></g></g></g></g></svg>
